P2
100 100
100
65 91 46 98 87 73 9 21 47 89 80 31 15 11 63 90 68 63 37 95 36 22 15 61 82 90 81 43 81 96 27 18 17 87 52 46 47 98 98 98 20 88 68 48 75 34 5 49 29 74 38 43 82 13 36 43 2 14 22 83 32 82 18 97 10 22 27 16 26 75 10 33 87 6 49 3 54 92 56 33 55 13 87 11 26 86 10 25 85 35 50 78 26 32 16 45 69 76 33 24 
22 43 1 29 16 93 24 18 8 20 13 49 59 73 84 78 93 60 57 46 13 64 38 72 52 54 27 63 53 100 45 51 33 73 5 23 79 61 13 16 1 35 26 2 95 28 81 31 2 55 23 2 33 81 42 81 0 98 39 73 66 55 91 36 80 82 66 66 20 18 44 38 43 27 42 17 27 34 6 81 78 100 79 83 45 56 44 71 12 21 36 30 62 89 34 66 95 42 71 21 
3 44 70 11 66 78 51 83 87 77 38 70 14 85 42 66 85 85 70 98 33 34 43 38 97 36 6 10 52 31 33 46 44 0 1 96 70 19 77 47 58 19 71 19 75 71 74 38 52 74 50 78 6 81 33 46 89 70 10 85 94 68 73 17 43 31 61 16 87 15 52 4 99 94 17 80 69 81 79 95 51 81 55 31 20 54 82 51 56 26 73 94 46 19 79 72 2 42 48 39 
6 39 77 16 8 80 8 30 88 38 36 92 27 28 8 53 69 17 44 44 47 61 68 59 58 80 64 92 21 46 45 98 46 71 99 69 78 12 97 93 95 12 2 20 90 4 57 74 39 83 80 70 6 7 28 60 67 13 39 90 12 36 56 56 76 63 16 13 87 42 98 0 72 23 46 88 14 9 53 1 11 69 84 16 19 91 6 66 7 39 79 90 47 25 68 6 35 71 32 79 
56 88 99 85 36 41 99 10 80 55 24 92 27 49 35 97 91 2 31 66 26 78 5 19 36 82 44 29 92 86 5 33 22 64 25 52 61 6 74 95 40 82 17 89 44 23 50 51 88 68 19 93 3 62 13 17 51 5 27 2 68 11 70 39 80 17 85 74 58 84 22 64 54 73 95 46 61 33 19 70 34 70 59 98 94 54 63 62 9 8 21 24 18 61 80 34 56 7 46 6 
1 94 95 91 39 47 5 51 19 36 14 59 60 3 43 59 46 84 11 44 20 12 85 97 77 55 29 43 97 63 65 78 7 80 33 27 71 21 53 60 45 22 56 62 78 49 97 9 17 30 4 37 73 93 80 94 23 19 1 93 7 68 39 35 77 34 85 92 89 59 67 24 83 7 54 6 64 63 61 63 63 72 99 52 87 24 31 87 39 85 93 30 14 1 82 10 36 13 71 71 
49 72 76 76 5 54 91 53 37 13 47 70 94 32 57 84 57 45 32 82 3 13 27 15 72 28 40 13 59 74 95 18 76 81 43 46 45 18 91 11 55 32 99 1 16 33 1 57 32 75 85 8 29 43 71 23 19 3 2 41 8 77 69 95 7 51 63 87 50 45 77 79 42 46 15 60 38 89 6 75 18 74 21 89 19 48 54 53 69 95 94 53 0 22 21 15 96 4 47 1 
72 50 81 43 99 32 49 57 67 78 52 100 97 98 43 42 24 85 12 87 3 21 13 32 24 69 42 89 47 29 30 95 44 96 79 72 21 95 52 1 28 93 62 44 45 13 26 87 88 88 3 78 42 28 41 10 44 69 37 33 76 87 4 82 7 72 60 2 48 98 87 49 31 3 75 71 52 15 68 25 27 70 62 5 13 22 27 57 96 26 2 1 46 44 40 11 36 80 2 6 
1 26 4 80 84 92 11 85 57 45 38 61 54 59 55 59 45 80 46 53 68 86 46 36 20 90 64 18 77 95 83 72 52 84 60 63 28 49 75 97 36 34 54 23 71 64 2 68 44 0 77 21 75 2 10 29 11 72 84 74 4 83 7 93 96 65 35 60 66 82 6 75 4 9 84 93 18 46 74 44 27 43 51 42 1 71 75 12 12 75 40 53 44 21 18 30 18 37 56 76 
25 30 30 68 98 36 44 48 91 39 76 59 72 39 8 15 72 20 97 34 42 20 53 51 89 63 72 95 84 100 79 27 75 55 34 51 25 13 20 47 86 48 68 45 68 1 16 86 49 77 68 65 87 83 92 96 93 38 84 51 4 30 85 47 78 25 28 40 31 47 8 93 34 96 73 12 21 16 54 5 42 40 30 5 72 97 72 31 23 52 35 68 29 22 88 83 38 5 55 83 
78 37 88 60 100 40 63 71 15 47 54 40 0 43 83 7 13 14 73 68 75 40 60 43 16 60 6 29 37 100 84 34 41 27 10 49 57 71 93 27 40 26 47 8 20 36 29 67 69 37 86 38 83 64 46 100 26 10 56 30 56 44 86 61 86 43 10 31 8 92 0 88 21 64 0 78 11 99 55 84 28 13 62 57 8 62 79 100 18 7 0 20 15 71 30 7 96 18 9 55 
53 46 26 32 2 82 54 38 83 46 48 36 12 12 27 38 54 16 54 17 40 24 37 16 51 88 89 97 74 40 24 77 90 79 84 91 16 38 72 88 95 25 55 9 51 0 36 31 91 12 16 81 46 62 30 46 21 43 75 16 77 8 1 99 66 57 48 25 94 30 24 58 88 18 75 34 85 11 19 69 1 53 67 17 27 20 59 60 70 64 37 38 92 26 16 45 41 22 88 53 
52 62 51 4 91 37 82 7 1 96 6 95 19 91 16 66 25 23 47 89 90 69 64 4 71 23 69 5 98 46 53 59 42 16 84 44 17 21 21 29 91 38 14 34 97 98 37 22 24 98 13 44 63 55 58 32 45 5 69 100 56 89 80 44 78 1 89 86 41 9 78 11 0 89 55 24 64 54 17 87 8 3 76 4 50 38 40 56 41 62 29 21 8 58 7 8 79 42 54 25 
68 20 9 35 97 46 33 99 16 26 12 21 18 89 48 81 9 68 2 73 71 5 99 59 63 23 77 55 0 26 31 54 100 56 94 86 91 84 36 4 10 76 48 41 0 50 45 51 84 54 42 71 13 84 35 25 13 9 51 100 27 7 10 38 0 84 46 6 57 51 45 26 74 39 24 28 1 83 55 5 6 88 27 80 78 31 17 78 57 71 34 42 96 94 22 97 42 33 47 44 
26 54 73 26 73 2 85 42 18 92 94 68 68 21 44 82 66 97 91 61 24 41 21 87 39 89 68 96 49 76 1 64 75 41 55 66 47 32 99 7 17 83 64 78 93 12 97 92 15 89 92 31 75 12 84 86 82 1 98 49 83 85 64 14 2 49 42 60 28 9 3 65 94 100 51 50 45 3 27 86 12 34 95 30 91 64 98 51 89 33 75 64 99 18 33 44 96 54 7 4 
4 22 57 36 65 73 35 82 97 63 41 16 53 54 69 7 50 23 96 15 76 13 41 9 92 65 17 57 6 79 4 100 75 46 20 13 3 60 67 92 32 52 79 20 17 89 17 56 71 79 25 43 6 16 81 58 27 94 23 72 8 57 10 67 47 73 13 61 10 72 77 63 8 26 22 62 93 76 59 25 46 22 4 11 68 9 15 87 91 55 51 0 88 62 40 12 82 37 48 14 
77 96 71 51 22 59 14 66 98 85 33 94 65 74 6 15 26 57 24 65 54 53 83 50 76 89 11 6 51 85 15 50 85 50 97 45 47 31 74 66 36 87 73 22 91 79 14 92 25 19 41 16 47 100 85 97 48 58 23 7 52 62 91 18 64 15 17 50 21 40 26 21 78 80 14 29 100 16 40 98 71 7 40 1 58 93 45 44 52 12 16 24 18 80 86 56 92 22 36 90 
3 2 17 57 78 14 70 18 7 88 8 21 82 28 22 63 69 75 1 90 52 100 39 23 40 63 89 53 16 48 86 27 27 74 63 30 30 32 49 78 86 83 26 29 70 16 30 75 46 35 1 86 83 98 72 63 27 100 38 49 73 42 49 67 70 68 99 71 17 50 90 96 31 57 7 36 52 3 89 26 95 41 49 66 21 16 53 100 31 84 100 97 69 13 88 30 93 30 64 13 
94 73 6 30 41 14 37 45 34 25 9 65 78 71 46 45 77 11 26 27 41 81 45 22 38 96 14 51 32 93 19 82 57 10 64 75 90 78 8 42 44 81 81 81 41 50 2 84 11 83 7 87 73 55 77 60 17 70 78 42 17 12 46 57 61 12 10 4 65 31 48 51 66 53 56 45 90 48 3 9 39 70 65 73 36 36 38 97 28 19 43 73 44 93 66 74 50 53 79 60 
27 56 59 17 10 36 89 17 32 61 56 53 23 81 71 2 68 10 97 50 56 19 60 35 15 62 50 47 65 76 79 11 26 17 79 86 44 50 46 89 98 89 99 64 25 8 8 51 26 73 32 14 80 59 75 74 36 29 32 65 73 41 84 35 94 51 39 42 51 7 82 56 56 0 46 36 58 27 49 14 0 87 83 11 27 15 100 75 40 10 25 24 41 77 96 81 63 73 6 42 
15 97 18 19 77 62 58 14 57 39 13 9 44 89 92 80 58 81 57 96 95 47 81 54 51 46 31 62 73 49 84 59 37 66 79 78 60 66 89 88 12 65 74 45 9 20 68 36 5 15 90 33 37 23 77 87 58 13 99 5 17 73 46 52 94 16 46 81 96 14 39 68 27 44 14 46 50 52 56 76 67 84 82 1 80 32 31 71 53 30 92 61 78 37 24 30 4 57 6 75 
4 67 14 59 22 75 83 2 81 82 26 16 11 31 12 24 56 72 1 6 47 74 50 54 75 58 29 35 98 71 12 33 27 62 37 50 18 76 28 10 89 28 94 50 90 88 63 95 77 75 36 43 27 79 74 4 98 52 21 33 2 83 76 57 7 76 22 3 28 27 41 81 65 75 92 41 21 79 27 17 26 8 48 11 10 70 82 65 59 63 50 2 28 24 34 36 95 96 27 66 
26 77 89 20 63 24 47 22 61 51 65 20 1 78 56 13 11 44 26 53 45 21 97 48 89 25 62 19 80 57 72 82 12 78 39 99 26 45 36 84 22 53 88 14 79 1 13 56 76 99 47 53 76 32 7 6 80 97 23 48 81 77 78 1 28 35 21 20 45 79 4 81 40 73 57 4 38 91 49 46 1 72 60 36 60 69 3 81 39 90 59 89 62 47 80 31 87 0 24 76 
75 94 80 75 24 41 44 96 67 98 32 50 45 44 0 99 84 97 7 64 22 12 77 14 70 36 73 63 40 20 95 13 32 9 55 26 100 6 99 63 43 44 25 40 32 77 19 9 16 44 96 38 54 32 88 31 37 3 68 37 56 15 91 28 25 13 56 83 16 72 55 29 35 81 57 35 85 8 86 25 53 61 44 8 58 26 44 92 26 8 50 13 80 60 56 61 32 92 6 75 
39 50 26 82 20 38 92 0 64 99 1 11 40 14 45 85 80 16 27 11 0 37 11 92 56 6 30 94 91 55 60 35 89 16 99 5 40 54 21 33 62 72 5 75 56 37 53 61 26 0 59 64 21 42 83 39 86 84 40 51 57 41 38 79 78 64 81 67 46 80 42 27 30 46 15 34 29 79 85 86 6 27 24 78 82 65 10 33 49 67 100 17 50 99 60 8 64 19 66 17 
4 43 11 19 34 82 1 29 80 20 62 79 92 79 50 58 100 48 1 20 62 31 49 2 48 37 81 37 37 11 70 33 32 53 57 75 16 86 62 5 76 25 13 0 100 79 0 51 99 22 11 83 38 30 48 8 58 88 14 53 85 13 57 55 8 99 76 85 89 38 24 32 71 60 68 5 78 96 53 12 7 1 8 73 9 81 46 74 94 60 33 17 62 65 65 11 92 10 34 49 
10 65 16 20 47 86 30 84 71 69 87 91 72 81 67 7 31 78 33 52 79 41 40 87 17 48 25 80 47 90 96 83 50 31 23 17 13 18 24 91 79 44 23 13 85 22 73 83 15 52 7 33 71 40 12 75 55 0 96 89 31 46 13 5 33 93 51 82 13 11 57 37 34 51 47 38 13 12 37 65 68 87 35 99 36 46 60 59 3 40 70 51 8 69 25 88 11 98 86 16 
43 50 38 55 1 83 95 60 24 97 49 68 10 72 43 64 59 61 36 93 46 32 2 47 35 52 13 58 1 82 68 40 41 6 45 43 43 57 42 24 15 73 71 7 57 25 57 17 98 34 85 24 71 56 34 99 63 36 57 46 91 74 60 100 30 44 62 12 82 61 41 86 85 82 98 57 83 45 35 5 55 25 8 29 94 56 49 53 38 18 36 87 68 62 55 99 68 35 62 79 
11 66 59 100 49 32 13 15 69 90 82 72 63 56 42 73 46 68 61 60 91 88 83 54 31 11 13 96 63 14 84 44 20 10 67 57 70 75 85 31 63 86 62 84 83 22 87 98 55 67 27 25 13 80 9 7 55 65 15 63 47 36 63 44 84 22 27 41 95 27 93 74 22 37 11 74 83 45 10 24 63 83 63 94 66 44 43 92 72 18 40 41 62 35 15 34 76 5 56 1 
48 51 27 23 10 17 76 26 2 66 24 36 61 74 49 40 5 63 4 49 70 97 92 12 55 48 95 98 33 64 64 53 24 49 92 47 34 76 29 48 50 18 43 76 27 2 63 82 81 92 90 62 33 51 97 11 61 86 65 61 77 17 39 71 4 75 32 98 19 3 14 40 16 79 68 61 59 8 10 13 98 0 3 2 75 85 37 89 81 92 21 28 33 85 99 54 47 29 60 50 
41 49 84 72 85 33 32 70 0 48 82 68 60 33 52 54 79 41 99 98 83 6 98 16 22 26 40 2 39 74 71 88 41 32 15 30 30 61 76 18 52 29 41 6 36 13 58 60 57 14 87 20 93 8 69 91 54 75 95 40 33 57 100 85 58 51 93 92 56 25 20 93 55 61 13 57 86 39 92 46 38 75 28 88 15 93 45 97 60 34 91 70 48 39 21 35 27 30 15 80 
66 26 29 26 11 47 38 55 12 85 47 40 89 73 95 46 52 95 37 54 10 65 37 70 4 43 9 68 81 97 18 48 89 90 6 83 48 95 54 29 92 100 57 46 77 68 43 61 47 81 60 5 97 87 3 87 44 13 5 35 44 83 70 30 68 78 48 69 79 89 57 62 70 36 89 94 70 44 89 59 6 3 40 10 100 78 20 58 98 59 65 2 14 29 43 21 92 61 63 27 
30 28 4 68 62 88 66 72 21 91 68 26 81 33 73 44 100 6 97 5 67 80 13 47 97 22 28 3 36 58 88 6 83 13 27 67 78 21 11 52 57 17 27 67 32 33 91 68 53 100 50 96 5 63 50 3 100 22 78 35 70 43 55 70 13 67 64 15 2 12 21 28 15 16 25 69 66 85 38 37 36 0 94 75 93 76 2 45 47 67 44 58 58 11 99 85 31 74 63 30 
62 19 65 25 68 17 97 62 33 20 56 71 21 63 71 96 99 92 93 66 70 27 22 7 46 13 18 42 83 69 13 9 52 62 4 50 86 3 66 41 28 55 56 62 58 80 0 68 76 94 0 50 98 84 97 39 60 56 35 92 0 77 58 81 72 13 27 61 59 89 89 24 90 52 59 17 83 99 88 63 36 26 8 52 95 81 62 41 89 28 41 38 94 12 89 40 67 70 53 82 
43 64 41 58 34 75 19 36 72 94 1 3 18 6 42 23 3 70 60 99 67 18 79 14 27 87 36 35 41 6 41 76 75 48 21 94 15 27 14 84 1 39 3 98 17 19 99 79 6 68 0 90 20 9 25 85 19 9 97 62 23 42 12 62 38 31 85 11 46 13 55 62 27 92 48 5 28 23 68 11 93 52 2 82 76 59 88 41 100 4 95 73 23 55 34 1 13 42 37 66 
56 9 20 51 92 79 92 21 42 35 50 77 83 76 4 21 45 37 34 45 100 29 30 11 60 3 8 42 51 34 56 29 53 99 26 38 2 86 39 22 11 56 6 9 60 71 11 44 25 46 19 27 85 100 94 75 28 35 34 3 22 91 13 87 12 64 70 45 18 78 81 29 72 75 94 43 80 0 89 95 48 56 58 7 20 29 50 48 12 47 72 6 81 84 68 93 82 20 15 96 
85 99 91 49 16 91 66 42 38 29 73 2 63 33 82 84 75 57 25 40 47 88 53 53 12 25 16 32 9 62 52 12 78 40 11 2 82 46 86 90 31 61 90 65 62 64 32 41 67 69 28 13 36 35 56 87 93 45 14 89 30 70 69 3 32 93 5 5 95 81 83 38 32 94 7 32 99 1 6 71 19 42 34 49 92 53 7 80 31 80 13 22 91 54 32 51 62 11 3 14 
83 57 35 86 91 92 10 63 98 59 100 78 4 22 66 66 19 72 44 90 20 42 24 59 72 59 37 66 14 2 37 81 45 81 72 25 73 0 22 63 26 15 19 66 30 10 2 72 73 42 48 53 83 75 66 0 2 27 36 98 68 90 12 75 46 51 62 66 12 65 93 29 55 18 48 26 44 5 75 5 91 11 67 60 25 69 96 74 86 10 99 81 95 94 58 0 65 53 39 9 
34 68 21 88 16 97 15 48 29 74 82 44 0 28 29 9 81 24 88 24 84 52 43 93 4 18 79 49 96 20 52 37 37 21 94 88 93 15 50 25 27 18 71 38 74 85 51 10 31 32 89 83 29 99 27 23 18 32 8 96 19 78 29 99 97 36 51 59 28 90 42 77 59 63 64 80 85 5 50 93 30 75 81 62 74 2 100 44 66 50 11 89 61 34 36 45 7 53 14 57 
56 69 23 84 80 36 93 29 41 54 98 72 9 55 20 54 67 81 9 53 40 2 25 83 9 28 87 0 3 21 68 27 49 68 22 83 42 69 55 69 36 41 88 72 83 13 0 61 50 16 21 35 93 84 4 94 52 31 94 85 18 98 4 34 13 65 1 48 2 22 31 5 33 13 16 67 26 55 1 86 34 95 47 38 1 99 13 59 42 52 80 0 56 28 89 74 71 25 26 54 
50 28 11 73 69 84 59 13 62 20 88 91 81 9 60 90 2 22 14 91 9 10 42 22 7 79 97 56 47 75 51 62 94 41 51 98 4 50 17 89 46 38 91 82 6 83 8 1 91 55 38 24 14 49 24 65 78 51 50 37 48 7 90 29 77 86 76 37 48 93 79 46 8 82 86 23 90 50 27 99 63 46 69 56 69 26 26 79 88 96 78 24 87 90 20 93 18 31 71 98 
32 51 14 84 73 87 15 3 66 24 95 81 41 11 4 20 38 53 99 87 41 9 57 46 25 8 44 42 52 48 10 79 14 84 84 32 82 67 85 29 10 97 74 21 1 92 44 73 9 14 89 20 6 76 26 53 60 86 13 13 40 16 20 84 61 59 90 5 66 5 25 54 6 24 55 64 16 13 30 38 45 100 93 89 76 80 80 32 69 30 88 55 82 77 43 88 19 65 37 72 
62 20 40 16 11 46 40 58 13 25 35 78 50 86 80 92 10 29 48 74 35 63 6 59 21 76 31 0 98 70 98 59 70 80 10 2 44 20 66 12 4 20 4 26 19 0 16 58 100 95 12 8 29 71 33 48 100 17 69 68 69 97 46 0 22 11 43 3 30 73 17 33 6 46 15 70 49 96 17 53 67 5 73 22 85 20 89 18 70 68 74 67 57 99 62 41 34 11 30 36 
63 29 80 8 12 32 77 48 39 49 45 19 16 83 73 26 99 75 71 80 92 67 37 84 74 7 30 34 36 20 90 99 22 78 0 2 80 39 15 9 83 53 56 34 93 23 93 92 93 70 75 92 7 32 99 16 47 55 8 51 5 52 76 43 28 70 97 31 93 74 50 60 53 78 18 4 92 97 99 56 80 84 12 75 88 88 94 70 44 14 11 53 90 66 13 23 25 88 54 8 
73 85 30 70 35 71 18 31 56 95 36 52 45 37 58 56 46 16 59 65 22 5 75 77 95 91 91 46 17 53 52 86 27 32 2 64 37 99 21 27 15 88 42 32 68 71 15 90 62 95 45 2 77 27 78 6 60 31 50 100 19 36 73 76 3 35 55 75 17 60 22 99 69 51 8 56 49 56 76 85 99 45 30 93 22 5 92 64 16 36 98 88 28 31 62 21 4 68 95 23 
37 55 70 64 30 50 92 35 80 23 80 64 94 71 95 26 11 27 71 59 15 17 79 97 11 13 63 54 3 92 44 3 65 7 98 41 2 56 3 62 63 72 0 85 48 89 80 77 18 45 15 95 19 69 93 95 64 59 52 99 98 10 95 2 11 13 66 20 95 16 29 10 20 27 68 10 23 8 81 10 24 99 35 88 70 41 14 38 67 94 50 19 84 37 16 65 95 84 75 1 
41 82 71 85 55 78 77 76 32 1 37 71 73 31 87 32 8 49 55 29 52 64 39 41 80 7 80 35 72 35 54 12 19 53 74 18 94 29 11 4 26 16 50 29 68 42 85 66 36 40 6 92 30 63 100 19 53 21 33 52 71 12 4 45 51 5 68 93 12 32 44 4 35 29 77 23 98 83 34 69 15 41 99 27 5 43 52 93 3 77 15 49 62 35 17 17 75 82 76 89 
67 100 7 3 95 22 10 99 38 0 61 18 31 38 52 38 47 36 15 16 32 23 37 89 39 86 45 71 62 12 23 6 99 51 66 35 75 54 86 8 74 12 27 51 88 40 20 77 57 30 63 22 62 70 14 68 72 92 12 62 64 18 5 77 42 66 35 44 41 25 6 59 30 57 64 37 61 43 67 67 71 71 65 97 63 60 13 48 68 42 7 28 100 89 11 52 34 89 38 36 
83 93 66 26 68 27 90 44 70 9 49 56 74 71 100 83 10 58 60 93 100 1 63 69 76 71 53 84 74 85 80 74 87 66 56 54 18 6 56 35 53 27 17 9 14 64 89 68 90 4 68 94 85 51 73 70 13 83 40 62 41 41 21 9 55 88 77 23 4 79 70 55 30 85 53 76 21 11 79 73 88 85 67 86 23 17 69 89 97 22 99 35 38 33 65 51 69 47 14 19 
29 13 1 49 49 34 67 43 73 90 6 28 88 82 93 42 31 8 11 76 1 56 67 1 86 2 58 74 38 81 8 96 45 45 42 86 84 91 8 45 55 24 97 87 65 23 1 50 14 6 94 10 79 70 77 44 5 97 53 36 31 0 75 89 5 86 45 80 49 71 95 88 26 10 22 70 12 76 51 47 37 19 0 82 54 100 26 32 29 44 54 91 72 91 65 17 92 16 76 11 
37 94 85 6 65 2 25 3 5 33 16 34 87 31 7 76 98 52 43 23 59 67 59 21 71 2 98 71 3 78 49 60 19 74 26 52 61 17 14 20 27 73 66 47 84 65 23 39 3 6 10 14 41 79 53 37 36 60 0 83 47 38 52 82 97 51 82 90 56 48 43 89 4 36 84 0 17 47 67 96 24 13 75 94 56 70 22 60 28 77 36 11 74 41 11 20 55 36 18 54 
0 54 64 28 20 47 8 66 64 5 5 1 96 20 10 43 47 28 14 81 79 0 62 30 34 19 19 85 88 52 15 75 12 25 97 19 92 7 11 67 40 11 96 3 64 53 29 25 40 22 78 0 22 98 16 14 14 90 70 4 55 73 35 10 92 12 69 10 16 46 79 0 30 51 90 41 8 13 40 17 88 20 74 13 66 1 48 16 11 81 17 83 89 34 35 26 68 44 73 79 
80 91 36 89 69 58 42 14 62 8 31 2 70 14 52 9 34 60 88 57 15 2 2 18 42 99 4 24 31 63 14 75 10 4 89 74 16 58 88 23 49 69 49 95 6 87 13 25 73 24 60 37 38 7 2 72 69 4 28 51 100 71 16 77 63 29 91 1 92 35 61 63 5 35 64 6 2 52 97 43 81 0 12 10 17 40 46 45 52 41 96 25 15 41 81 39 70 60 31 59 
60 70 38 81 48 62 88 96 64 8 40 49 72 88 7 34 96 87 24 92 83 32 63 38 31 84 0 93 66 35 56 73 35 68 5 3 3 57 17 21 47 85 18 47 15 62 28 96 23 44 23 63 27 7 62 2 72 1 69 31 45 17 12 21 38 6 55 48 63 18 68 100 95 28 72 87 21 56 50 56 63 48 76 48 68 0 78 4 50 5 26 49 46 61 96 85 57 29 73 19 
40 34 1 79 54 77 1 12 82 67 45 12 59 36 73 75 31 67 83 83 65 64 95 33 36 71 5 43 17 29 84 89 24 7 100 14 37 76 71 22 90 96 50 94 77 31 29 6 59 44 49 50 56 48 59 87 14 18 86 92 38 20 56 13 88 17 94 70 94 63 5 95 2 64 70 72 83 36 21 99 74 15 57 87 83 39 23 57 75 23 56 74 59 88 59 11 47 45 70 55 
53 34 1 46 98 27 13 39 13 99 23 43 1 0 68 16 27 34 61 92 91 79 21 19 71 51 32 81 18 88 88 7 88 63 24 24 28 88 93 41 82 31 92 8 74 65 23 17 95 94 81 28 28 17 77 64 85 30 24 37 100 67 39 96 17 13 39 25 34 45 6 99 33 72 47 73 34 92 84 71 95 2 32 40 77 28 51 29 72 25 4 55 20 62 42 8 26 9 73 97 
50 18 34 29 54 45 12 25 3 33 17 52 37 84 67 16 22 16 78 90 3 27 44 55 61 96 19 23 3 25 1 41 47 36 96 47 24 60 98 46 90 25 93 48 62 50 33 83 5 63 16 39 35 54 0 61 79 74 20 67 99 34 77 5 40 50 2 70 8 11 62 71 23 81 67 48 18 1 11 72 26 80 69 3 28 90 73 84 90 35 13 94 44 64 98 26 70 10 51 53 
63 75 54 16 46 67 62 99 89 70 87 25 38 11 38 21 35 36 60 3 83 66 70 39 22 18 11 51 25 0 23 67 79 81 56 96 95 80 83 45 77 30 94 25 29 4 54 44 21 21 34 50 13 96 82 66 94 32 35 38 31 69 33 77 12 41 47 10 17 28 83 31 38 11 18 1 49 96 75 16 86 83 22 70 80 35 69 62 76 89 57 3 74 10 32 2 66 96 11 46 
83 99 33 30 58 11 77 32 38 36 38 8 41 23 99 81 68 47 69 31 94 0 26 89 93 23 81 76 63 40 99 18 41 84 23 91 16 46 84 98 77 92 89 71 27 56 96 50 70 48 43 81 33 36 41 74 34 12 66 77 13 99 100 84 14 62 70 74 57 75 56 44 25 61 67 96 49 18 50 74 59 3 77 66 48 23 36 80 24 56 46 32 35 15 40 20 44 9 95 84 
50 16 62 74 16 20 74 75 87 70 15 32 31 29 35 60 75 79 69 4 11 0 43 63 98 61 55 73 31 43 3 75 69 94 73 84 7 16 4 40 30 13 8 97 75 69 5 47 74 61 34 51 21 27 25 30 100 99 30 66 53 73 57 97 0 12 79 12 92 40 38 60 59 87 61 90 4 68 82 68 2 34 33 81 65 34 6 27 32 61 28 89 17 8 59 9 51 36 68 53 
7 20 59 65 87 46 100 30 75 56 93 95 9 78 87 62 19 83 91 30 9 34 21 87 79 82 55 34 2 25 7 18 11 44 47 97 42 12 95 39 0 59 21 80 52 21 58 21 69 81 12 74 60 26 22 74 86 63 63 49 4 82 74 24 19 91 2 73 69 94 76 47 53 91 67 16 58 42 40 31 23 54 3 41 67 2 93 97 78 3 79 21 63 27 31 30 12 53 96 54 
69 75 100 51 35 26 3 44 94 71 28 72 35 1 0 23 95 89 30 66 33 71 21 60 40 8 58 43 23 95 63 10 3 4 84 29 27 11 24 55 28 30 63 13 19 43 4 27 41 58 5 69 97 30 34 21 92 34 3 82 65 64 79 70 57 40 58 3 88 52 84 27 62 91 27 22 89 63 13 49 56 13 98 42 36 22 77 82 22 61 54 42 19 53 90 83 21 100 35 75 
40 53 89 84 46 89 45 82 73 70 97 53 53 51 7 43 30 31 80 55 57 83 76 86 29 3 92 63 40 59 9 98 12 28 39 42 28 19 37 0 48 68 84 62 58 95 8 11 60 57 37 95 37 66 63 8 43 71 4 26 44 52 38 24 70 80 85 85 43 89 100 66 87 35 79 7 92 42 21 53 21 29 100 84 48 35 18 13 50 17 23 98 28 85 47 68 9 98 17 83 
36 52 99 60 4 56 1 11 62 85 74 72 74 36 84 28 65 0 15 43 89 76 16 79 17 69 54 58 60 54 55 79 11 77 67 70 7 28 19 60 60 52 68 96 16 11 30 83 35 31 83 66 2 34 96 2 15 18 96 46 34 17 1 38 31 8 6 32 70 5 43 10 9 80 100 40 63 85 37 31 74 0 79 6 9 56 87 70 60 70 99 19 82 79 21 51 39 95 72 75 
28 21 55 53 16 52 27 78 47 85 83 4 80 50 97 24 56 63 83 63 52 28 3 73 0 61 19 96 12 73 57 39 3 3 65 44 67 31 60 85 30 43 25 94 50 77 67 19 1 17 44 69 33 37 20 86 57 73 66 35 14 3 75 15 80 65 83 21 98 12 32 4 64 25 90 25 36 20 71 98 82 69 63 74 61 52 94 33 97 21 58 10 36 80 51 6 97 44 65 85 
43 48 3 98 83 80 53 49 17 56 89 68 87 34 4 42 40 46 34 90 63 48 64 50 95 67 79 92 45 48 60 66 67 44 71 88 81 98 28 10 66 92 12 37 42 66 28 24 3 97 12 51 22 75 31 60 26 64 32 84 3 10 95 62 46 30 21 22 69 52 66 34 94 27 93 9 82 78 56 54 23 7 89 60 18 22 58 21 96 52 58 16 13 79 73 98 68 30 4 99 
13 36 89 21 43 16 55 100 33 26 24 40 28 21 59 78 27 82 32 97 26 58 51 55 44 65 6 21 28 41 99 24 1 100 93 29 60 9 64 0 89 18 65 44 69 67 3 60 12 33 96 27 42 22 60 29 24 2 22 81 14 89 27 24 23 83 17 79 40 68 30 33 27 7 32 65 13 49 54 68 60 35 35 16 24 45 98 89 35 68 61 91 0 8 9 17 62 41 63 90 
73 35 46 16 48 51 64 23 38 7 8 8 53 52 42 93 99 43 86 82 20 14 44 61 8 95 45 81 82 32 19 9 45 48 59 7 47 25 97 20 50 28 34 82 15 11 62 74 22 94 84 89 28 12 50 98 29 91 52 82 0 85 0 51 97 50 58 25 8 70 63 33 90 82 50 46 74 67 94 50 72 86 19 54 4 47 33 21 19 98 27 71 77 30 38 42 68 7 6 74 
74 63 86 4 69 2 65 72 19 84 1 35 25 8 78 20 17 21 81 10 75 51 10 65 90 2 47 41 7 50 25 66 71 7 65 86 84 22 22 32 18 45 69 48 0 24 73 85 46 62 62 7 48 14 58 53 22 7 26 42 74 70 84 63 80 54 97 33 23 57 50 99 85 70 63 100 78 71 77 80 61 34 78 16 98 76 98 70 64 35 32 64 84 3 91 58 2 89 44 16 
90 4 77 14 43 92 97 35 2 86 44 98 16 71 63 79 50 40 39 74 78 67 95 9 100 9 73 6 83 49 38 89 54 66 65 36 91 61 6 33 34 100 80 25 66 88 22 13 72 86 37 14 22 48 22 63 36 78 90 65 46 76 90 24 58 78 45 21 89 70 2 0 44 8 90 42 80 66 90 62 69 35 72 89 91 45 44 68 63 83 57 19 86 67 95 0 46 67 71 94 
68 32 68 84 24 85 33 58 20 44 81 48 63 57 30 60 79 49 51 22 49 47 92 39 36 51 38 28 98 27 44 50 93 45 30 6 16 8 80 5 13 80 72 80 21 48 4 90 21 19 38 88 20 8 14 19 98 84 79 76 75 63 51 93 24 59 57 24 54 97 3 31 36 10 64 80 70 39 13 2 53 19 89 54 20 32 85 55 97 86 91 27 43 8 7 52 20 33 12 57 
88 28 59 15 93 35 33 2 48 93 40 98 56 85 69 84 75 67 40 13 24 8 17 26 78 33 67 65 47 7 52 69 34 62 90 27 24 62 6 99 92 72 25 68 2 22 6 71 11 63 86 18 2 59 75 60 28 46 76 2 75 99 8 69 49 73 4 72 71 36 79 88 79 45 38 15 46 46 18 11 99 8 68 91 4 40 38 63 81 99 35 14 66 44 35 55 37 66 25 40 
11 33 45 7 77 47 58 93 65 92 99 76 38 18 41 85 46 23 8 37 23 77 67 65 71 30 91 9 36 15 95 46 90 0 89 88 8 51 34 64 11 80 72 25 2 80 43 77 7 94 77 78 23 84 100 97 31 82 76 70 59 49 25 94 97 72 7 35 48 81 58 8 83 1 56 24 10 20 69 51 20 2 35 8 38 15 68 2 68 70 45 54 57 31 90 17 78 74 73 21 
81 18 83 40 88 93 25 13 11 97 47 39 30 91 79 16 20 89 76 18 24 63 22 84 6 67 2 74 58 39 94 33 49 2 16 91 43 43 57 25 75 2 79 40 81 41 77 66 41 76 12 80 0 53 59 89 3 57 98 90 11 58 58 42 44 1 94 87 64 32 50 43 36 56 6 74 39 44 35 37 46 67 37 50 1 20 27 15 20 77 66 35 98 21 49 94 24 41 89 69 
20 40 29 4 96 63 24 28 91 81 85 36 49 92 45 90 84 57 88 54 72 7 89 61 32 4 63 61 41 24 70 5 29 30 31 25 95 99 49 57 93 96 44 26 3 58 19 63 39 21 22 99 21 32 76 48 100 91 49 97 68 76 54 18 56 68 87 36 1 57 52 55 38 26 66 45 80 3 19 86 93 5 34 22 31 25 67 28 31 47 59 40 26 11 28 46 23 77 44 96 
40 56 58 22 20 58 71 40 24 21 33 51 12 99 84 45 24 29 15 22 18 44 17 14 78 46 3 67 100 28 54 28 6 72 81 39 78 43 41 2 70 39 81 73 26 38 47 17 90 68 40 25 58 78 95 74 96 62 20 100 88 4 41 90 83 16 94 56 68 3 58 73 56 37 43 32 55 48 39 32 49 100 41 57 38 63 33 35 89 54 39 16 45 44 77 73 62 2 63 21 
40 78 46 36 64 3 22 38 24 92 93 9 94 5 56 23 40 86 90 68 15 35 97 60 7 20 50 10 45 31 6 37 85 74 68 61 65 33 11 89 95 20 45 96 46 42 92 11 92 28 97 100 85 61 78 43 24 32 16 50 59 37 90 78 23 14 44 67 50 63 37 70 80 60 85 4 64 4 4 71 69 43 71 42 91 24 99 64 78 63 81 76 66 20 2 96 22 33 97 50 
8 42 20 69 46 94 39 42 50 2 6 29 59 59 20 56 100 42 36 22 12 61 4 34 92 86 18 57 70 81 100 40 99 54 32 62 75 8 29 69 72 54 63 79 62 52 80 23 19 90 83 8 78 44 90 91 49 57 74 16 26 17 71 19 34 78 55 43 71 34 8 30 98 1 58 78 50 67 32 59 38 93 3 43 67 38 81 5 8 66 81 25 69 23 66 29 29 15 96 32 
26 86 24 4 87 40 95 21 19 93 23 56 19 97 27 89 67 29 96 22 41 95 27 7 91 77 66 47 20 56 87 24 97 79 78 59 61 35 60 85 92 37 8 71 19 63 56 70 100 93 95 48 42 65 22 43 0 43 40 18 39 68 64 13 46 2 96 20 94 82 21 74 54 10 93 13 82 91 100 21 11 70 31 39 21 85 92 70 83 100 11 57 3 33 83 40 37 64 1 15 
75 62 18 97 38 76 43 74 100 84 98 50 9 15 28 56 7 39 59 3 80 2 12 44 32 27 88 52 39 39 69 34 88 92 0 19 73 84 91 86 34 55 62 61 4 15 38 100 44 82 94 70 62 14 99 7 52 74 65 53 30 34 62 75 71 47 84 50 15 91 87 14 93 62 43 83 87 99 55 2 73 29 82 87 58 14 0 50 14 31 56 86 45 9 53 20 38 2 59 1 
76 90 61 99 96 42 35 90 26 78 46 68 22 58 84 46 26 81 73 80 29 34 80 69 24 0 47 42 38 35 62 62 72 44 52 27 99 53 67 66 92 24 69 94 41 94 84 80 51 44 57 27 85 76 14 42 55 81 86 49 82 66 86 99 17 75 0 58 38 3 67 82 49 47 63 76 55 46 7 1 21 65 56 38 49 25 64 63 80 68 32 99 44 45 15 85 8 82 19 23 
34 23 0 11 88 99 14 30 32 86 88 77 36 67 39 17 69 57 17 64 23 44 42 10 15 17 51 69 42 46 56 81 35 0 44 82 77 74 8 34 81 66 95 15 48 30 14 67 26 59 4 3 58 5 63 17 75 98 40 22 65 41 83 81 91 10 74 90 42 72 23 78 100 75 56 84 0 57 26 54 78 36 65 4 30 1 88 28 27 5 95 29 17 50 23 90 70 29 18 60 
34 97 17 26 72 68 62 34 9 2 73 20 55 63 21 61 79 2 49 76 47 27 26 99 92 100 57 74 94 51 29 71 39 49 48 50 79 83 80 82 60 89 77 21 12 94 99 84 20 14 18 40 27 24 9 80 25 26 39 32 5 80 60 92 58 99 45 47 56 81 7 42 10 35 35 96 22 97 11 72 86 75 49 28 50 40 37 3 81 54 78 41 73 11 98 84 86 19 73 13 
61 62 1 1 37 3 87 2 88 10 4 100 94 39 73 74 67 89 49 20 22 90 25 8 82 75 15 14 67 80 66 58 61 21 99 33 81 38 29 36 95 79 100 88 46 61 45 69 12 77 42 45 2 9 83 50 92 65 94 47 20 72 28 60 98 100 71 65 1 11 34 92 93 12 48 83 20 13 93 51 93 65 44 64 17 99 85 23 82 27 76 34 53 74 68 35 66 35 51 0 
95 43 55 12 87 48 23 74 21 39 91 15 24 25 10 75 83 68 61 85 58 23 32 29 19 77 48 28 92 51 84 45 12 24 92 11 70 81 8 69 7 12 4 27 49 10 62 72 76 94 48 30 67 77 11 37 15 43 38 23 86 8 33 19 48 1 93 18 72 56 35 81 15 28 70 78 78 47 56 68 45 46 16 93 3 53 41 5 97 20 0 30 20 83 34 36 54 81 81 10 
96 82 36 75 86 97 19 87 83 10 59 100 100 64 88 33 29 14 61 42 42 89 87 30 19 46 38 66 9 97 69 32 22 7 39 54 23 20 62 7 25 86 100 90 62 28 33 35 7 72 57 61 83 61 5 14 76 19 96 71 95 31 0 72 54 42 70 94 58 13 56 14 85 6 82 98 37 73 65 52 27 59 11 85 96 85 59 49 99 91 35 72 80 42 12 30 46 40 20 91 
77 14 0 33 23 42 25 25 45 48 49 38 17 7 79 69 30 10 96 23 71 35 40 11 37 83 79 21 13 89 3 9 29 22 73 18 11 80 46 18 33 25 44 91 74 98 39 60 99 93 46 7 38 80 34 76 1 99 59 91 4 33 59 80 59 53 9 89 87 87 74 69 52 57 0 24 39 65 61 11 77 94 73 31 83 66 79 42 20 6 38 9 29 56 97 23 74 89 55 65 
3 31 44 11 72 86 15 98 64 45 81 54 28 100 18 30 91 74 59 57 54 5 62 40 98 36 70 36 14 84 13 18 80 93 57 41 83 65 16 32 75 22 12 25 52 94 70 47 57 53 18 14 46 75 67 2 31 96 6 31 70 84 19 54 62 15 87 39 94 52 97 49 3 11 60 21 14 87 4 59 95 79 51 25 44 12 68 61 52 3 29 86 100 77 61 84 25 37 81 12 
88 53 30 87 8 2 4 53 6 18 9 27 61 72 94 69 19 22 79 50 57 8 22 21 37 81 85 100 39 89 69 99 97 99 10 14 22 48 11 14 49 26 28 43 8 89 80 88 30 84 30 84 33 96 36 83 97 56 34 52 67 18 31 14 98 51 8 85 1 41 58 39 73 14 0 50 59 98 56 13 15 10 83 72 53 65 98 4 40 32 7 72 69 91 85 32 91 78 85 94 
20 86 59 7 91 94 33 12 99 89 81 83 71 88 57 6 3 75 38 36 47 85 86 35 3 10 86 34 93 69 83 80 89 16 83 69 14 61 24 95 55 74 23 2 69 75 92 77 59 65 37 16 71 82 73 46 2 57 17 50 91 36 46 38 87 26 5 62 69 61 95 100 23 70 11 87 57 93 57 96 3 14 76 51 41 97 20 20 28 9 43 59 46 60 67 89 58 52 6 69 
99 12 60 73 85 15 70 76 48 100 88 96 46 8 57 78 84 13 90 22 65 65 6 28 22 62 94 25 31 63 33 97 0 50 20 32 71 44 56 8 63 94 55 78 34 99 27 82 79 14 85 46 75 56 20 4 32 38 66 73 99 36 19 49 43 70 87 33 51 33 8 11 90 91 47 37 10 41 28 47 12 23 39 16 18 81 60 15 54 80 21 86 74 13 50 51 21 15 2 38 
49 75 67 76 93 3 75 31 26 93 67 92 56 91 35 58 57 34 59 81 74 12 86 11 68 39 47 96 74 10 69 55 27 91 15 9 43 57 0 39 63 68 14 16 82 90 4 89 49 17 23 61 15 17 89 5 78 20 37 14 52 22 29 8 63 31 51 10 25 47 32 69 48 2 6 26 52 90 87 72 62 43 65 63 9 25 11 30 96 31 31 79 79 37 42 38 87 57 20 49 
31 74 66 81 92 47 93 72 38 3 14 98 62 93 87 89 16 63 46 36 22 60 89 20 89 12 33 67 93 10 29 30 27 2 28 82 46 41 96 20 76 2 30 40 70 98 87 8 69 46 70 40 70 40 51 71 51 71 39 69 32 53 43 77 47 71 27 39 97 79 2 30 11 96 31 9 46 19 44 72 91 31 94 4 44 47 78 37 1 28 76 7 54 79 82 50 61 33 93 54 
32 48 70 78 84 88 39 18 53 15 72 19 21 27 0 39 22 59 28 98 45 20 19 36 62 92 26 91 54 94 3 86 9 16 58 38 51 38 16 44 47 79 54 74 71 16 49 48 64 40 92 11 47 90 4 4 60 33 26 9 26 22 55 36 51 3 26 48 1 79 79 11 92 77 6 3 64 59 88 26 7 65 79 46 39 25 22 4 12 5 60 43 21 54 51 23 82 40 13 38 
15 47 14 35 40 17 11 95 43 29 21 72 70 35 82 70 32 71 5 25 50 21 50 25 50 50 30 43 67 72 86 3 10 90 28 77 33 42 42 4 66 63 66 83 13 34 1 38 70 75 80 4 84 91 34 67 22 19 53 36 17 96 95 23 8 76 95 18 45 84 18 70 61 92 26 15 48 76 47 30 46 32 80 83 66 23 85 71 83 17 72 53 61 93 34 11 47 48 87 70 
89 88 98 8 79 9 34 18 15 72 84 83 10 40 67 16 47 4 17 67 54 71 90 75 73 50 60 11 11 28 9 80 82 66 33 99 90 63 9 58 13 10 26 93 12 72 71 67 18 98 0 76 13 25 63 37 3 80 48 36 10 75 48 32 32 97 38 39 74 15 55 73 71 79 61 47 43 65 15 42 94 37 99 58 35 8 15 14 47 13 25 33 30 84 93 20 11 84 58 35 
96 1 19 61 86 93 53 6 2 89 64 48 23 91 3 20 23 9 84 39 24 18 16 49 16 83 60 91 24 68 62 14 48 62 98 19 33 93 88 43 77 39 23 83 6 58 58 40 51 82 24 62 3 39 91 87 73 56 75 76 69 37 77 90 88 5 87 20 45 84 35 85 36 46 83 65 55 42 14 80 100 58 56 44 90 79 99 31 31 91 61 65 69 86 46 65 69 20 75 54 
84 18 15 38 68 48 19 28 71 83 49 16 99 48 88 51 13 7 0 4 0 41 35 61 59 19 20 5 89 39 96 26 68 63 5 2 69 82 38 68 13 95 55 90 62 37 94 75 78 77 0 62 34 83 88 52 100 11 48 17 65 13 1 40 37 10 69 59 89 84 26 28 88 72 35 83 87 57 26 59 96 60 9 41 18 49 1 37 68 89 77 61 61 64 69 88 42 67 41 59 
51 10 61 81 86 99 67 49 79 41 92 37 76 66 62 66 4 70 6 50 94 90 0 76 83 12 8 11 15 65 1 89 28 8 92 47 40 73 16 64 100 18 55 27 80 34 17 34 12 84 23 76 80 30 88 51 46 6 93 6 97 10 1 93 9 60 27 44 5 75 12 64 85 34 21 12 24 71 86 61 58 47 17 84 73 61 44 59 0 43 10 38 87 4 39 49 79 8 99 74 
79 53 51 3 64 22 73 84 57 13 96 50 41 95 98 98 95 52 93 60 40 97 35 90 39 100 83 18 15 71 32 97 21 38 2 92 14 84 9 47 63 21 48 35 51 3 92 32 58 88 42 50 32 19 7 41 43 67 74 49 89 77 69 6 30 15 15 49 74 27 33 21 28 87 76 40 70 75 5 93 52 94 49 64 33 44 92 88 55 52 97 28 79 90 47 62 28 55 41 70 
